<?xml version="1.0" encoding="UTF-8" standalone="no"?>
<!-- Created with Inkscape (http://www.inkscape.org/) -->

<svg
   width="20.221001"
   height="11.112"
   viewBox="0 0 20.221001 11.112"
   version="1.1"
   id="svg5"
   inkscape:version="1.1.1 (3bf5ae0d25, 2021-09-20)"
   sodipodi:docname="arrow-down.svg"
   xmlns:inkscape="http://www.inkscape.org/namespaces/inkscape"
   xmlns:sodipodi="http://sodipodi.sourceforge.net/DTD/sodipodi-0.dtd"
   xmlns="http://www.w3.org/2000/svg"
   xmlns:svg="http://www.w3.org/2000/svg">
  <sodipodi:namedview
     id="namedview7"
     pagecolor="#ffffff"
     bordercolor="#666666"
     borderopacity="1.0"
     inkscape:pageshadow="2"
     inkscape:pageopacity="0.0"
     inkscape:pagecheckerboard="0"
     inkscape:document-units="px"
     showgrid="false"
     inkscape:zoom="8.375"
     inkscape:cx="37.552239"
     inkscape:cy="6.3880597"
     inkscape:window-width="1366"
     inkscape:window-height="721"
     inkscape:window-x="0"
     inkscape:window-y="22"
     inkscape:window-maximized="1"
     inkscape:current-layer="layer1"
     width="20.221px"
     height="11.112px" />
  <defs
     id="defs2" />
  <g
     inkscape:label="Camada 1"
     inkscape:groupmode="layer"
     id="layer1">
    <path
       d="M 8.7505651,10.541392 0.36055163,2.1013906 c -0.114293,-0.11423 -0.204986,-0.24986 -0.266845,-0.39913 -0.06186,-0.14928 -0.09375000146,-0.30929 -0.09375000146,-0.47087 0,-0.16159 0.03189000146,-0.32159599 0.09375000146,-0.47087398 0.06186,-0.14927803 0.152552,-0.28490503 0.266845,-0.39913003 0.232397,-0.231439 0.547019,-0.3613779959552 0.87500307,-0.3613779959552 0.32798,0 0.6426,0.1299389959552 0.875,0.3613779959552 l 7.9999893,8.00000501 8,-8.00000501 c 0.2324,-0.231439 0.547,-0.3613779959552 0.875,-0.3613779959552 0.328,0 0.6426,0.1299389959552 0.875,0.3613779959552 0.1143,0.114225 0.2049,0.249852 0.2667,0.39913003 0.0619,0.14927799 0.0938,0.30928398 0.0938,0.47087398 0,0.16158 -0.0319,0.32159 -0.0938,0.47087 -0.0618,0.14927 -0.1524,0.2849 -0.2667,0.39913 l -8.37,8.4400014 c -0.1794,0.1808 -0.3929,0.3243 -0.628,0.4222 -0.2352,0.098 -0.4873,0.1484 -0.742,0.1484 -0.2546889,0 -0.5069189,-0.0504 -0.7420489,-0.1484 -0.23513,-0.0979 -0.44852,-0.2414 -0.62793,-0.4222 z"
       fill="#053f5c"
       id="path824"
       inkscape:export-filename="/home/thiago/path824.png"
       inkscape:export-xdpi="96.000008"
       inkscape:export-ydpi="96.000008" />
  </g>
</svg>
