<svg width="15" height="28" viewBox="0 0 15 28" fill="none" xmlns="http://www.w3.org/2000/svg">
<path d="M0.770234 12.1169L12.1634 0.499315C12.3176 0.341053 12.5006 0.215471 12.7021 0.129815C12.9037 0.0441591 13.1196 -8.21931e-08 13.3378 -7.26585e-08C13.5559 -6.31239e-08 13.7719 0.0441592 13.9734 0.129815C14.1749 0.215471 14.358 0.341053 14.5122 0.499315C14.8246 0.821112 15 1.25677 15 1.71092C15 2.16508 14.8246 2.60073 14.5122 2.92253L3.71301 14.0001L14.5122 25.0776C14.8246 25.3994 15 25.8351 15 26.2892C15 26.7434 14.8246 27.1791 14.5122 27.5009C14.358 27.6591 14.1749 27.7845 13.9734 27.8702C13.7719 27.9558 13.5559 28 13.3378 28C13.1196 28 12.9037 27.9558 12.7021 27.8702C12.5006 27.7845 12.3175 27.6591 12.1634 27.5009L0.770233 15.911C0.526165 15.6625 0.332447 15.3669 0.200252 15.0413C0.0680565 14.7157 3.25688e-07 14.3666 3.41105e-07 14.0139C3.56522e-07 13.6612 0.0680566 13.312 0.200252 12.9864C0.332447 12.6608 0.526165 12.3653 0.770234 12.1169Z" fill="#053F5C"/>
</svg>
