<?xml version="1.0" encoding="UTF-8" standalone="no"?>
<!-- Created with Inkscape (http://www.inkscape.org/) -->

<svg
   width="11.112"
   height="20.221001"
   viewBox="0 0 11.112 20.221001"
   version="1.1"
   id="svg5"
   inkscape:version="1.1.1 (3bf5ae0d25, 2021-09-20)"
   sodipodi:docname="arrow-right.svg"
   xmlns:inkscape="http://www.inkscape.org/namespaces/inkscape"
   xmlns:sodipodi="http://sodipodi.sourceforge.net/DTD/sodipodi-0.dtd"
   xmlns="http://www.w3.org/2000/svg"
   xmlns:svg="http://www.w3.org/2000/svg">
  <sodipodi:namedview
     id="namedview7"
     pagecolor="#ffffff"
     bordercolor="#666666"
     borderopacity="1.0"
     inkscape:pageshadow="2"
     inkscape:pageopacity="0.0"
     inkscape:pagecheckerboard="0"
     inkscape:document-units="px"
     showgrid="false"
     width="11.112px"
     inkscape:zoom="8.375"
     inkscape:cx="19.761194"
     inkscape:cy="19.761194"
     inkscape:window-width="1366"
     inkscape:window-height="721"
     inkscape:window-x="0"
     inkscape:window-y="22"
     inkscape:window-maximized="1"
     inkscape:current-layer="layer1" />
  <defs
     id="defs2" />
  <g
     inkscape:label="Camada 1"
     inkscape:groupmode="layer"
     id="layer1">
    <path
       d="m 10.541383,11.470439 -8.4399899,8.39 c -0.11422,0.1143 -0.24985,0.205 -0.39913,0.2668 -0.14928,0.0619 -0.30928,0.0938 -0.47087,0.0938 -0.16158,0 -0.32159002,-0.0319 -0.47087002,-0.0938 -0.14928,-0.0618 -0.2849019,-0.1525 -0.3991269,-0.2668 -0.231439,-0.2324 -0.361377997303,-0.547 -0.361377997303,-0.875 0,-0.328 0.129938997303,-0.6426 0.361377997303,-0.875 l 7.99999692,-8 -7.99999792,-7.9999994 c -0.231438,-0.2324 -0.361377997303,-0.54702 -0.361377997303,-0.875 0,-0.32798595 0.129939997303,-0.64260693 0.361377997303,-0.87500393 0.114226,-0.114294 0.2498479,-0.204865 0.3991279,-0.266724 0.14928,-0.061859 0.30929002,-0.09375000431 0.47087002,-0.09375000431 0.16159,0 0.32159,0.03189100431 0.47087,0.09375000431 0.14928,0.061859 0.28491,0.15243 0.39913,0.266724 L 10.541383,8.7304291 c 0.1808,0.17941 0.3243,0.39292 0.4223,0.62805 0.0979,0.23514 0.1483,0.4872301 0.1483,0.7419599 0,0.2547 -0.0504,0.5069 -0.1483,0.7421 -0.098,0.2351 -0.2415,0.4485 -0.4223,0.6279 z"
       fill="#58aadb"
       id="path9" />
  </g>
</svg>
