<svg width="21" height="21" viewBox="0 0 21 21" fill="none" xmlns="http://www.w3.org/2000/svg">
<path d="M9.67474 0.0324879C11.7946 -0.134642 13.9153 0.345814 15.7561 1.41028C17.597 2.47475 19.0712 4.07306 19.9838 5.99373C20.8965 7.9144 21.2044 10.0669 20.8669 12.1664C20.5294 14.2659 19.5625 16.2135 18.0939 17.7514C16.6254 19.2893 14.7245 20.3451 12.6428 20.779C10.5611 21.213 8.39666 21.0047 6.43595 20.1816C4.47523 19.3586 2.81062 17.9596 1.66238 16.1698C0.514139 14.38 -0.0636173 12.2837 0.00555959 10.1584C0.00943768 10.0291 0.0387391 9.90191 0.0917915 9.78396C0.144844 9.66602 0.220608 9.55968 0.314758 9.47101C0.408908 9.38234 0.5196 9.31309 0.640513 9.26721C0.761427 9.22132 0.890195 9.1997 1.01946 9.20358C1.14873 9.20745 1.27598 9.23675 1.39392 9.28981C1.51187 9.34286 1.61821 9.41862 1.70687 9.51277C1.79554 9.60692 1.86479 9.71762 1.91068 9.83853C1.95657 9.95944 1.97819 10.0882 1.97431 10.2175C1.90779 12.2294 2.55483 14.1999 3.801 15.7808C5.04717 17.3617 6.81219 18.451 8.78398 18.8561C10.7558 19.2612 12.8073 18.956 14.5758 17.9945C16.3443 17.033 17.7159 15.4772 18.4479 13.6021C19.18 11.7269 19.2255 9.65333 18.5763 7.74792C17.9271 5.84251 16.625 4.22804 14.9003 3.18998C13.1757 2.15193 11.1395 1.75715 9.15183 2.07547C7.16418 2.39379 5.35312 3.40469 4.03887 4.92942L3.77112 5.25492H6.89356L7.02743 5.26542C7.26304 5.29784 7.47895 5.41446 7.63523 5.59373C7.79152 5.77299 7.87763 6.00278 7.87763 6.24061C7.87763 6.47844 7.79152 6.70822 7.63523 6.88749C7.47895 7.06676 7.26304 7.18338 7.02743 7.2158L6.89356 7.22498H1.64356L1.50968 7.2158C1.29686 7.18657 1.09944 7.08853 0.947537 6.93663C0.795636 6.78473 0.697595 6.58731 0.668372 6.37448L0.659184 6.24061V0.990612L0.668372 0.856737C0.697595 0.643914 0.795636 0.446492 0.947537 0.294591C1.09944 0.14269 1.29686 0.0446489 1.50968 0.0154254L1.64356 0.00623791L1.77743 0.0154254C1.99026 0.0446489 2.18768 0.14269 2.33958 0.294591C2.49148 0.446492 2.58952 0.643914 2.61875 0.856737L2.62793 0.990612L2.62662 3.55392C4.42808 1.50766 6.95667 0.244786 9.67474 0.0338003V0.0324879ZM10.1709 5.25492L10.3047 5.26411C10.5176 5.29333 10.715 5.39137 10.8669 5.54327C11.0188 5.69518 11.1168 5.8926 11.1461 6.10542L11.1552 6.2393V10.4984L13.4521 10.4997L13.586 10.5089C13.8226 10.5402 14.0397 10.6565 14.197 10.836C14.3543 11.0155 14.441 11.246 14.441 11.4847C14.441 11.7234 14.3543 11.9539 14.197 12.1334C14.0397 12.3129 13.8226 12.4292 13.586 12.4605L13.4521 12.4684H10.1709L10.037 12.4605C9.82398 12.4313 9.62641 12.333 9.47448 12.1809C9.32256 12.0287 9.22464 11.831 9.19568 11.6179L9.18649 11.484V6.2393L9.19568 6.10542C9.2249 5.8926 9.32294 5.69518 9.47484 5.54327C9.62675 5.39137 9.82417 5.29333 10.037 5.26411L10.1709 5.25492Z" fill="#053F5C"/>
</svg>
