<svg width="17" height="17" viewBox="0 0 17 17" fill="none" xmlns="http://www.w3.org/2000/svg">
<path d="M16.707 4.0432L14.375 6.3752L10.625 2.6252L12.957 0.293201C13.0498 0.200255 13.16 0.126518 13.2813 0.0762072C13.4026 0.0258964 13.5327 0 13.664 0C13.7953 0 13.9254 0.0258964 14.0467 0.0762072C14.168 0.126518 14.2782 0.200255 14.371 0.293201L16.707 2.6292C16.7999 2.72199 16.8737 2.83219 16.924 2.95351C16.9743 3.07482 17.0002 3.20487 17.0002 3.3362C17.0002 3.46753 16.9743 3.59758 16.924 3.71889C16.8737 3.84021 16.7999 3.95041 16.707 4.0432ZM0 13.2492L10.065 3.1852L13.815 6.9352L3.75 16.9992H0.000999928V13.2492H0ZM13.622 1.0452L12.082 2.5842L14.419 4.9192L15.957 3.3802L13.622 1.0452ZM12.358 6.9802L10.023 4.6442L1.001 13.6652V16.0012H3.337L12.358 6.9802Z" fill="#053F5C"/>
</svg>
