<svg width="18" height="20" viewBox="0 0 18 20" fill="none" xmlns="http://www.w3.org/2000/svg">
<path d="M13.5715 0H1.30723C0.954178 0.0111918 0.619579 0.160309 0.37521 0.415361C0.13084 0.670413 -0.00383214 1.01108 8.3036e-05 1.36429V18.6357C-0.00383214 18.9889 0.13084 19.3296 0.37521 19.5846C0.619579 19.8397 0.954178 19.9888 1.30723 20H15.8358C16.0112 19.9963 16.1842 19.9581 16.3448 19.8875C16.5055 19.8169 16.6506 19.7154 16.772 19.5887C16.8934 19.462 16.9886 19.3126 17.0523 19.1491C17.1159 18.9856 17.1467 18.8111 17.1429 18.6357V3.57143L13.5715 0ZM12.8572 1.27143L15.8572 4.28571H12.8572V1.27143ZM1.42865 18.5714V1.42857H11.4287V5.71429H15.7144V18.5714H1.42865Z" fill="#053F5C"/>
<path d="M11.4287 12.7214C11.0417 12.7314 10.6733 12.89 10.4001 13.1643L6.31438 11.2643V10.95L10.3572 9.05712C10.5607 9.26919 10.8225 9.41616 11.1095 9.47943C11.3965 9.54271 11.6958 9.51944 11.9696 9.41259C12.2433 9.30573 12.4793 9.12007 12.6475 8.87911C12.8158 8.63815 12.9088 8.3527 12.9148 8.05888C12.9207 7.76505 12.8395 7.47605 12.6812 7.22842C12.5229 6.98079 12.2948 6.78567 12.0256 6.66773C11.7564 6.54979 11.4583 6.51434 11.1689 6.56585C10.8796 6.61736 10.612 6.75352 10.4001 6.95712C10.1157 7.23642 9.95167 7.61576 9.94295 8.01426V8.17855L5.91438 10.0785C5.7119 9.86616 5.45107 9.71849 5.16477 9.65416C4.87847 9.58983 4.57953 9.61172 4.30566 9.71707C4.03179 9.82241 3.79524 10.0065 3.62586 10.2461C3.45647 10.4857 3.36183 10.7701 3.35388 11.0635C3.34592 11.3568 3.42501 11.6459 3.58116 11.8943C3.73731 12.1428 3.96353 12.3394 4.23129 12.4595C4.49905 12.5795 4.79636 12.6175 5.08573 12.5688C5.37509 12.5201 5.64355 12.3868 5.85724 12.1857L5.91438 12.1285L9.96438 14.0285V14.2428C9.96585 14.539 10.0554 14.828 10.2216 15.0731C10.3878 15.3183 10.6231 15.5084 10.8977 15.6194C11.1723 15.7305 11.4736 15.7573 11.7635 15.6965C12.0534 15.6358 12.3186 15.4902 12.5255 15.2782C12.7323 15.0663 12.8715 14.7976 12.9253 14.5064C12.979 14.2152 12.945 13.9145 12.8274 13.6427C12.7098 13.3709 12.514 13.1402 12.2649 12.9799C12.0159 12.8197 11.7248 12.7372 11.4287 12.7428V12.7214Z" fill="#053F5C"/>
</svg>
