<svg width="53" height="54" viewBox="0 0 53 54" fill="none" xmlns="http://www.w3.org/2000/svg">
<path d="M26.303 50.3255C20.199 50.3255 14.345 47.8512 10.0289 43.4468C5.71268 39.0425 3.28788 33.0689 3.28788 26.8403C3.28788 20.6116 5.71268 14.638 10.0289 10.2337C14.345 5.82936 20.199 3.35503 26.303 3.35503C32.407 3.35503 38.261 5.82936 42.5772 10.2337C46.8934 14.638 49.3182 20.6116 49.3182 26.8403C49.3182 33.0689 46.8934 39.0425 42.5772 43.4468C38.261 47.8512 32.407 50.3255 26.303 50.3255ZM26.303 53.6805C33.279 53.6805 39.9693 50.8527 44.9021 45.8192C49.8349 40.7857 52.6061 33.9587 52.6061 26.8403C52.6061 19.7218 49.8349 12.8949 44.9021 7.86133C39.9693 2.82781 33.279 0 26.303 0C19.327 0 12.6368 2.82781 7.70398 7.86133C2.7712 12.8949 0 19.7218 0 26.8403C0 33.9587 2.7712 40.7857 7.70398 45.8192C12.6368 50.8527 19.327 53.6805 26.303 53.6805Z" fill="white"/>
<path d="M23.0215 36.9058C23.0215 36.4652 23.1065 36.0289 23.2718 35.6219C23.437 35.2148 23.6792 34.845 23.9845 34.5334C24.2898 34.2219 24.6522 33.9748 25.0511 33.8062C25.4501 33.6376 25.8776 33.5508 26.3094 33.5508C26.7411 33.5508 27.1687 33.6376 27.5676 33.8062C27.9665 33.9748 28.3289 34.2219 28.6342 34.5334C28.9396 34.845 29.1817 35.2148 29.347 35.6219C29.5122 36.0289 29.5972 36.4652 29.5972 36.9058C29.5972 37.7956 29.2508 38.649 28.6342 39.2782C28.0176 39.9074 27.1814 40.2608 26.3094 40.2608C25.4374 40.2608 24.6011 39.9074 23.9845 39.2782C23.3679 38.649 23.0215 37.7956 23.0215 36.9058ZM23.3437 16.7588C23.2999 16.3356 23.3438 15.9076 23.4726 15.5028C23.6013 15.098 23.8121 14.7253 24.0911 14.4089C24.3701 14.0926 24.7112 13.8396 25.0922 13.6664C25.4732 13.4933 25.8857 13.4038 26.3028 13.4038C26.7199 13.4038 27.1323 13.4933 27.5133 13.6664C27.8944 13.8396 28.2355 14.0926 28.5145 14.4089C28.7935 14.7253 29.0042 15.098 29.133 15.5028C29.2618 15.9076 29.3057 16.3356 29.2619 16.7588L28.1111 28.5249C28.0725 28.9872 27.8652 29.4178 27.5303 29.7315C27.1955 30.0453 26.7574 30.2194 26.3028 30.2194C25.8482 30.2194 25.4101 30.0453 25.0752 29.7315C24.7404 29.4178 24.5331 28.9872 24.4945 28.5249L23.3437 16.7588Z" fill="white"/>
</svg>
