<svg width="20" height="20" viewBox="0 0 20 20" fill="none" xmlns="http://www.w3.org/2000/svg">
<path d="M12.0147 15.2897H11.8076L11.6612 15.4361L7.75913 19.3382C7.75911 19.3382 7.75909 19.3382 7.75908 19.3382C7.70141 19.3959 7.63195 19.4398 7.55588 19.4672L7.72198 19.3011L11.7861 15.237H16.8421C17.5331 15.237 18.1957 14.9625 18.6843 14.4739C19.1729 13.9853 19.4474 13.3227 19.4474 12.6317V3.15793C19.4474 2.46697 19.1729 1.8043 18.6843 1.31572C18.1957 0.827129 17.5331 0.552643 16.8421 0.552643H3.15789C2.46693 0.552643 1.80427 0.827129 1.31569 1.31572C0.827112 1.8043 0.552632 2.46697 0.552632 3.15793V12.6317C0.552632 13.3227 0.827113 13.9853 1.31569 14.4739L1.66925 14.1204L1.31569 14.4739C1.80427 14.9625 2.46693 15.237 3.15789 15.237H6.86842V18.9476V19.1827C6.83394 19.1095 6.81582 19.0292 6.81579 18.9476C6.81579 18.9475 6.81579 18.9475 6.81579 18.9475V15.7897V15.2897H6.31579H3.15789C2.45298 15.2897 1.77693 15.0096 1.27848 14.5112C0.780029 14.0127 0.5 13.3366 0.5 12.6317V3.15793C0.5 2.453 0.780029 1.77695 1.27848 1.27849C1.77693 0.78003 2.45298 0.5 3.15789 0.5H16.8421C17.547 0.5 18.2231 0.78003 18.7215 1.27849C19.22 1.77695 19.5 2.453 19.5 3.15793V12.6317C19.5 13.3367 19.22 14.0127 18.7215 14.5112C18.2231 15.0096 17.547 15.2897 16.8421 15.2897H12.0147ZM3.65789 4.71057H16.3421V4.76322H3.65789V4.71057ZM3.65789 7.8685H15.2895V7.92115H3.65789V7.8685ZM3.65789 11.0264H11.0789V11.0791H3.65789V11.0264Z" fill="#053F5C" stroke="#053F5C"/>
</svg>
