<svg width="40" height="40" viewBox="0 0 40 40" fill="none" xmlns="http://www.w3.org/2000/svg">
<g clip-path="url(#clip0)">
<path d="M0 18.6441C0.333132 13.8219 2.39933 9.28299 5.81725 5.86507C9.23517 2.44715 13.7741 0.380953 18.5963 0.047821V6.28207C15.4276 6.60483 12.4674 8.01096 10.2153 10.2631C7.96314 12.5152 6.55701 15.4755 6.23424 18.6441H0ZM39.9522 21.4059C39.6186 26.2274 37.5525 30.7655 34.1351 34.1829C30.7177 37.6003 26.1795 39.6665 21.3581 40V33.7679C24.5266 33.4448 27.4866 32.0385 29.7386 29.7865C31.9907 27.5344 33.397 24.5744 33.7201 21.4059H39.9522Z" fill="white"/>
<path d="M18.5963 33.7679V40C13.7744 39.6669 9.2358 37.601 5.81793 34.1836C2.40006 30.7661 0.333635 26.2277 0 21.4059H6.23424C6.5574 24.5744 7.96366 27.5344 10.2157 29.7865C12.4678 32.0385 15.4278 33.4448 18.5963 33.7679ZM40 1.52588e-05V18.6441H33.7875V10.6041L22.173 22.2186L17.7727 17.8292L29.3872 6.21253H21.3472V1.52588e-05H40Z" fill="white"/>
</g>
<defs>
<clipPath id="clip0">
<rect width="40" height="40" fill="white"/>
</clipPath>
</defs>
</svg>
