<svg width="106" height="106" viewBox="0 0 106 106" fill="none" xmlns="http://www.w3.org/2000/svg">
<path d="M0 49.8171C0.840736 37.1271 6.28201 25.179 15.3043 16.2114C24.276 7.19337 36.2297 1.75462 48.9256 0.914276V17.3086C40.5891 18.1573 32.801 21.8551 26.8757 27.7776C20.9505 33.7001 17.2511 41.4846 16.4019 49.8171H0ZM105.112 57.0743C104.272 69.7647 98.8309 81.7134 89.8074 90.68C80.8343 99.7128 68.8706 105.161 56.1632 106V89.6114C64.5005 88.7624 72.2893 85.0639 78.2147 79.1403C84.14 73.2166 87.8389 65.4307 88.6869 57.0971L105.112 57.0743Z" fill="white"/>
<path d="M48.9256 89.6115V106C36.2297 105.16 24.276 99.7209 15.3043 90.7029C6.28069 81.7362 0.839182 69.7876 0 57.0971H16.4019C17.2509 65.4303 20.9501 73.2156 26.8752 79.1391C32.8004 85.0625 40.5886 88.7614 48.9256 89.6115ZM105.237 0.811432V49.8172H88.8926V28.6743L58.3356 59.2457L46.776 47.6915L77.3158 17.1486H56.1632V0.811432H105.237Z" fill="#57A7E0"/>
</svg>
