<svg width="375" height="133" viewBox="0 0 375 133" fill="none" xmlns="http://www.w3.org/2000/svg">
<path d="M112.221 31.2486L66.9797 1.5884C65.3733 0.551132 63.4999 -0.000732422 61.5856 -0.000732422C59.6713 -0.000732422 57.798 0.551132 56.1916 1.5884L3.90798 35.8668C2.72488 36.6153 1.7479 37.646 1.06551 38.8656C0.383128 40.0852 0.0168994 41.4551 3.77943e-07 42.8513V88.8221C-0.000470664 90.5872 0.43937 92.3248 1.27998 93.8786C2.12058 95.4324 3.3356 96.7538 4.8158 97.7238L15.3459 104.628V45.7225L61.6012 15.4088L91.8297 35.2318C92.3439 35.5489 92.7683 35.9917 93.0626 36.518C93.3569 37.0443 93.5113 37.6368 93.5113 38.2393C93.5113 38.8418 93.3569 39.4343 93.0626 39.9606C92.7683 40.487 92.3439 40.9297 91.8297 41.2468L64.2034 59.357C63.3569 59.9029 62.3701 60.1933 61.3618 60.1933C60.3535 60.1933 59.3667 59.9029 58.5202 59.357L36.5398 44.9451L23.4821 53.5092L58.6725 76.5814C59.5272 77.1314 60.5231 77.424 61.5406 77.424C62.558 77.424 63.5539 77.1314 64.4086 76.5814L112.221 45.2207C117.432 41.8137 117.432 34.668 112.221 31.2486Z" fill="#F27F0C"/>
<path d="M100.774 91.8951L61.5763 117.603L38.8 102.671V73.054L23.4541 62.9938V109.956L38.8 120.016L56.1854 131.414C57.7918 132.45 59.6645 133.001 61.5779 133.001C63.4913 133.001 65.3639 132.45 66.9704 131.414L111.304 102.346C112.785 101.375 114 100.054 114.84 98.5003C115.681 96.9465 116.121 95.2089 116.12 93.4438V52.1345L100.774 62.1947V91.8951Z" fill="#F7AD19"/>
<path d="M141.216 36.146C140.959 36.6507 140.593 37.0921 140.143 37.4376C139.673 37.7969 139.138 38.0628 138.567 38.2212C137.945 38.3975 137.301 38.4851 136.655 38.4814H133.589V42.9168H132.175V30.354H136.897C137.555 30.3462 138.209 30.4402 138.837 30.6327C139.383 30.7982 139.89 31.0675 140.333 31.4256C140.747 31.7639 141.075 32.1947 141.29 32.6832C141.518 33.2132 141.632 33.7852 141.623 34.3619C141.631 34.9804 141.492 35.5919 141.216 36.146ZM139.257 32.3455C138.532 31.8532 137.665 31.6107 136.789 31.6548H133.589V37.1867H136.717C137.198 37.1926 137.677 37.1257 138.138 36.9885C138.537 36.8722 138.911 36.681 139.238 36.4248C139.538 36.1894 139.78 35.8884 139.944 35.5451C140.112 35.1876 140.196 34.7968 140.19 34.4022C140.215 34.0095 140.144 33.6165 139.981 33.2579C139.818 32.8992 139.57 32.5859 139.257 32.3455Z" fill="white"/>
<path d="M152.903 42.9168L149.24 38.0323H145.634V42.9168H144.21V30.354H149.638C150.276 30.3455 150.912 30.4365 151.522 30.6235C152.044 30.7854 152.531 31.045 152.955 31.3885C153.351 31.7097 153.67 32.1149 153.888 32.5748C154.107 33.0613 154.213 33.5906 154.199 34.1234C154.207 34.606 154.122 35.0856 153.947 35.5359C153.785 35.9394 153.543 36.3061 153.235 36.6137C152.918 36.9288 152.549 37.1875 152.144 37.3788C151.71 37.5857 151.248 37.7307 150.773 37.8093L154.65 42.9416L152.903 42.9168ZM151.926 32.3115C151.361 31.8738 150.565 31.6549 149.539 31.6549H145.634V36.7748H149.523C149.963 36.7779 150.401 36.7173 150.823 36.5951C151.195 36.4878 151.545 36.3136 151.855 36.081C152.14 35.8619 152.372 35.5813 152.533 35.2602C152.698 34.9175 152.781 34.541 152.775 34.1606C152.792 33.8073 152.724 33.4549 152.577 33.1331C152.429 32.8114 152.206 32.5296 151.926 32.3115Z" fill="white"/>
<path d="M169.094 39.1009C168.792 39.8695 168.345 40.5737 167.779 41.1761C167.202 41.7831 166.508 42.2686 165.739 42.604C164.907 42.9505 164.014 43.129 163.112 43.129C162.21 43.129 161.317 42.9505 160.485 42.604C159.724 42.2767 159.036 41.8004 158.463 41.2034C157.89 40.6065 157.443 39.901 157.149 39.1288C156.842 38.3387 156.686 37.4982 156.689 36.6509C156.685 35.8027 156.845 34.9616 157.158 34.173C157.46 33.4038 157.906 32.6993 158.474 32.0977C159.05 31.4914 159.743 31.006 160.51 30.6699C161.343 30.3234 162.236 30.145 163.139 30.145C164.041 30.145 164.935 30.3234 165.767 30.6699C166.531 31.0011 167.221 31.4801 167.797 32.0792C168.363 32.6773 168.806 33.3788 169.103 34.1451C169.411 34.9352 169.567 35.7756 169.563 36.623C169.567 37.4712 169.408 38.3123 169.094 39.1009ZM167.713 34.619C167.484 34.0078 167.135 33.4483 166.686 32.9733C166.237 32.4983 165.698 32.1175 165.099 31.8531C164.474 31.5728 163.795 31.4311 163.109 31.438C162.423 31.4311 161.744 31.5695 161.116 31.8438C160.528 32.1016 159.999 32.4769 159.562 32.9465C159.121 33.426 158.775 33.9839 158.542 34.5911C158.293 35.2363 158.167 35.9224 158.172 36.6137C158.168 37.307 158.293 37.995 158.542 38.6425C158.772 39.2529 159.122 39.8118 159.571 40.2866C160.02 40.7614 160.559 41.1426 161.157 41.4084C161.783 41.6887 162.463 41.8303 163.149 41.8234C163.835 41.8303 164.514 41.692 165.142 41.4177C165.731 41.159 166.26 40.7826 166.697 40.3119C167.137 39.8338 167.482 39.2768 167.713 38.6704C167.964 38.0255 168.09 37.3392 168.083 36.6478C168.089 35.9544 167.963 35.2661 167.713 34.619Z" fill="white"/>
<path d="M181.328 42.5699C180.413 42.9562 179.427 43.1482 178.433 43.1337C177.516 43.1488 176.605 42.978 175.756 42.6319C174.997 42.3158 174.311 41.846 173.743 41.252C173.175 40.658 172.738 39.9529 172.458 39.1814C172.159 38.3701 172.01 37.5119 172.016 36.6478C172.013 35.8005 172.169 34.9601 172.476 34.17C172.768 33.3998 173.205 32.6923 173.764 32.0855C174.346 31.456 175.055 30.9562 175.845 30.6189C176.635 30.2816 177.487 30.1142 178.346 30.1279C178.831 30.1236 179.316 30.1599 179.795 30.2363C180.214 30.2989 180.625 30.4026 181.023 30.5461C181.395 30.6863 181.751 30.8637 182.086 31.0757C182.423 31.2904 182.745 31.5274 183.05 31.785L182.117 32.8629C181.879 32.6512 181.625 32.4565 181.359 32.2806C181.088 32.1029 180.801 31.9524 180.501 31.8315C180.176 31.6943 179.839 31.5905 179.493 31.5217C179.092 31.4468 178.683 31.4105 178.275 31.4133C177.608 31.4073 176.949 31.5491 176.344 31.8284C175.769 32.0949 175.254 32.4742 174.83 32.9434C174.401 33.4274 174.065 33.986 173.838 34.5912C173.596 35.2326 173.474 35.9129 173.478 36.5982C173.47 37.3199 173.591 38.0373 173.835 38.7168C174.054 39.3331 174.395 39.8995 174.836 40.3832C175.272 40.8529 175.801 41.2264 176.391 41.4797C177.047 41.7522 177.753 41.8871 178.464 41.8761C179.16 41.8805 179.851 41.7555 180.501 41.5076C181.079 41.293 181.621 40.9911 182.108 40.6125V37.4779H178.265V36.2204H183.476V41.2195C182.836 41.7797 182.111 42.2354 181.328 42.5699Z" fill="white"/>
<path d="M195.402 42.9168L191.743 38.0323H188.136V42.9168H186.712V30.354H192.141C192.779 30.3455 193.415 30.4365 194.025 30.6235C194.546 30.7866 195.033 31.0461 195.458 31.3885C195.853 31.7109 196.171 32.1159 196.391 32.5748C196.608 33.0618 196.714 33.5907 196.702 34.1234C196.71 34.606 196.624 35.0856 196.45 35.5359C196.287 35.9388 196.045 36.3052 195.738 36.6137C195.419 36.9272 195.05 37.1857 194.646 37.3788C194.212 37.5849 193.75 37.7298 193.275 37.8093L197.152 42.9416L195.402 42.9168ZM194.426 32.3115C193.86 31.8738 193.065 31.6549 192.041 31.6549H188.136V36.7748H192.023C192.463 36.7779 192.902 36.7173 193.325 36.5951C193.697 36.4878 194.046 36.3135 194.354 36.081C194.64 35.8628 194.872 35.582 195.032 35.2602C195.2 34.9183 195.284 34.5414 195.278 34.1606C195.295 33.8069 195.227 33.4542 195.079 33.1324C194.93 32.8105 194.706 32.529 194.426 32.3115Z" fill="white"/>
<path d="M211.507 42.9169H209.974L208.494 39.5934H201.623L200.128 42.9169H198.667L204.418 30.2518H205.755L211.507 42.9169ZM205.068 31.9244L202.183 38.3359H207.934L205.068 31.9244Z" fill="white"/>
<path d="M220.053 39.4695H219.982L215.383 32.7513V42.9169H213.994V30.354H215.436L220.034 37.2177L224.633 30.354H226.066V42.9293H224.642V32.7451L220.053 39.4695Z" fill="white"/>
<path d="M241.402 42.9169H239.869L238.39 39.5934H231.522L230.023 42.9169H228.553L234.307 30.2518H235.641L241.402 42.9169ZM234.963 31.9244L232.078 38.3359H237.833L234.963 31.9244Z" fill="white"/>
<path d="M259.903 39.1009C259.588 39.857 259.118 40.5395 258.523 41.1048C257.906 41.6791 257.184 42.1302 256.397 42.4336C255.53 42.7634 254.61 42.9273 253.682 42.9168H249.299V30.354H253.682C254.609 30.3445 255.529 30.5062 256.397 30.831C257.185 31.1288 257.907 31.577 258.523 32.1504C259.116 32.7136 259.586 33.3926 259.903 34.1451C260.547 35.7349 260.547 37.5111 259.903 39.1009ZM258.542 34.6903C258.305 34.095 257.948 33.5543 257.494 33.1014C257.024 32.639 256.463 32.2783 255.846 32.042C255.153 31.774 254.414 31.6426 253.67 31.6548H250.713V41.6066H253.67C254.413 41.6173 255.151 41.4891 255.846 41.2288C256.464 40.9981 257.025 40.6403 257.494 40.1787C257.946 39.7299 258.302 39.1947 258.542 38.6053C258.792 37.9832 258.918 37.3181 258.912 36.6478C258.916 35.9777 258.79 35.313 258.542 34.6903Z" fill="white"/>
<path d="M272.526 31.6363H264.825V35.9292H271.715V37.2239H264.825V41.6252H272.616V42.9169H263.401V30.354H272.526V31.6363Z" fill="white"/>
<path d="M140.345 58.5398V72.3571H136.527V58.5398H131.242V55.0243H145.659V58.5398H140.345Z" fill="white"/>
<path d="M159.132 72.3447L155.402 66.7973H152.395V72.3447H148.571V54.9996H156.524C158.597 54.9996 160.208 55.5034 161.358 56.511C162.509 57.5187 163.084 58.9218 163.084 60.7204V60.7699C163.084 62.174 162.74 63.317 162.052 64.1987C161.356 65.0875 160.421 65.7611 159.356 66.1407L163.606 72.3354L159.132 72.3447ZM159.207 60.931C159.232 60.5805 159.173 60.2291 159.035 59.9059C158.896 59.5828 158.683 59.2971 158.411 59.0726C157.765 58.6248 156.986 58.4066 156.201 58.4531H152.398V63.4305H156.275C157.22 63.4305 157.946 63.2075 158.452 62.7615C158.703 62.5393 158.901 62.2642 159.032 61.9562C159.164 61.6482 159.224 61.3148 159.21 60.9805L159.207 60.931Z" fill="white"/>
<path d="M179.487 72.3447L177.896 68.4575H170.54L168.951 72.3447H165.049L172.511 54.8881H176.04L183.501 72.3447H179.487ZM174.202 59.469L171.892 65.0907H176.515L174.202 59.469Z" fill="white"/>
<path d="M198.374 72.3447L189.949 61.3274V72.3447H186.171V54.9996H189.691L197.842 65.673V54.9996H201.62V72.3447H198.374Z" fill="white"/>
<path d="M217.911 69.5106C217.609 70.1633 217.161 70.7386 216.602 71.1925C216.008 71.666 215.327 72.0194 214.597 72.2332C213.76 72.4813 212.89 72.6024 212.016 72.5925C210.686 72.5904 209.366 72.3598 208.115 71.9111C206.828 71.4488 205.646 70.7384 204.636 69.8204L206.899 67.1195C207.645 67.7379 208.467 68.2584 209.346 68.6682C210.209 69.0528 211.145 69.2473 212.091 69.2381C212.742 69.2772 213.39 69.1265 213.956 68.8044C214.163 68.6796 214.332 68.5028 214.448 68.2918C214.564 68.0808 214.622 67.8431 214.616 67.6027V67.5532C214.619 67.3269 214.573 67.1026 214.479 66.8965C214.355 66.6752 214.173 66.4913 213.953 66.3637C213.615 66.1625 213.256 65.9964 212.884 65.8681C212.299 65.666 211.705 65.4934 211.102 65.3509C210.292 65.156 209.492 64.9161 208.709 64.6323C208.055 64.4015 207.442 64.0714 206.89 63.6536C206.393 63.2689 205.996 62.772 205.73 62.204C205.436 61.5253 205.296 60.7902 205.32 60.0513V60.0018C205.309 59.2645 205.46 58.5339 205.764 57.8615C206.055 57.2297 206.479 56.6676 207.008 56.2137C207.57 55.737 208.221 55.375 208.923 55.1483C209.716 54.8929 210.546 54.7674 211.379 54.7766C212.576 54.7645 213.767 54.9572 214.898 55.3465C215.963 55.7264 216.958 56.279 217.843 56.9819L215.853 59.8531C215.136 59.3634 214.37 58.9482 213.568 58.6142C212.859 58.3181 212.098 58.1634 211.329 58.1589C210.739 58.1162 210.15 58.2673 209.654 58.5894C209.481 58.7115 209.34 58.8731 209.242 59.0606C209.145 59.2482 209.094 59.4561 209.094 59.6672V59.7169C209.087 59.97 209.143 60.221 209.256 60.4478C209.395 60.6842 209.597 60.8773 209.84 61.0053C210.208 61.2047 210.597 61.3626 211 61.4761C211.491 61.6248 212.113 61.7982 212.865 61.9965C213.668 62.2004 214.455 62.4602 215.222 62.7739C215.853 63.0312 216.441 63.3821 216.966 63.8146C217.426 64.2027 217.792 64.6899 218.035 65.2394C218.292 65.8584 218.416 66.5242 218.399 67.1938V67.2434C218.403 68.0255 218.237 68.799 217.911 69.5106Z" fill="white"/>
<path d="M225.537 58.4531V62.1916H233.838V65.6358H225.537V72.3447H221.713V54.9996H234.957V58.4407L225.537 58.4531Z" fill="white"/>
<path d="M255.035 67.1566C254.581 68.2329 253.918 69.2091 253.084 70.0292C252.25 70.8494 251.262 71.4974 250.176 71.9358C247.793 72.8775 245.14 72.8775 242.758 71.9358C241.671 71.4912 240.681 70.8436 239.838 70.0279C239.016 69.2259 238.366 68.2659 237.926 67.2062C237.466 66.1044 237.233 64.9213 237.242 63.7278V63.6783C237.233 62.4839 237.469 61.3002 237.936 60.2C238.391 59.1245 239.054 58.1488 239.888 57.3288C240.722 56.5087 241.71 55.8604 242.795 55.4207C243.979 54.9396 245.247 54.6994 246.526 54.7145C247.795 54.7003 249.054 54.9405 250.229 55.4207C251.316 55.8646 252.308 56.5124 253.151 57.3288C253.972 58.1324 254.622 59.0919 255.063 60.1504C255.524 61.2521 255.756 62.4352 255.747 63.6287V63.6783C255.75 64.874 255.508 66.0577 255.035 67.1566ZM251.73 63.6783C251.735 62.9594 251.604 62.246 251.345 61.5752C251.099 60.9315 250.728 60.3428 250.253 59.843C249.777 59.3432 249.207 58.9424 248.575 58.6637C247.909 58.3712 247.188 58.2234 246.461 58.2301C245.731 58.2214 245.008 58.365 244.337 58.6513C243.715 58.922 243.156 59.3186 242.696 59.8159C242.236 60.3189 241.874 60.9029 241.629 61.538C241.369 62.2042 241.238 62.9138 241.244 63.6287V63.6783C241.239 64.3982 241.37 65.1125 241.629 65.7845C241.874 66.4279 242.245 67.0165 242.72 67.5159C243.194 68.0125 243.76 68.4123 244.387 68.6929C245.055 68.9878 245.779 69.1356 246.51 69.1265C247.237 69.1323 247.956 68.9889 248.624 68.7053C249.251 68.4379 249.814 68.041 250.275 67.5407C250.736 67.0378 251.099 66.4538 251.345 65.8186C251.605 65.1523 251.736 64.4428 251.73 63.7278V63.6783Z" fill="white"/>
<path d="M269.697 72.3447L265.966 66.7973H262.96V72.3447H259.133V54.9996H267.104C269.177 54.9996 270.788 55.5034 271.939 56.511C273.089 57.5187 273.664 58.9218 273.664 60.7204V60.7699C273.664 62.174 273.32 63.317 272.632 64.1987C271.936 65.0875 271.002 65.7611 269.936 66.1407L274.186 72.3354L269.697 72.3447ZM269.772 60.931C269.797 60.5805 269.738 60.2291 269.599 59.9059C269.461 59.5828 269.247 59.2971 268.976 59.0726C268.33 58.6248 267.551 58.4066 266.765 58.4531H262.963V63.4305H266.84C267.785 63.4305 268.511 63.2075 269.016 62.7615C269.267 62.5393 269.466 62.2642 269.597 61.9562C269.728 61.6482 269.789 61.3148 269.775 60.9805L269.772 60.931Z" fill="white"/>
<path d="M290.733 72.3447V61.0177L285.836 68.4203H285.737L280.89 61.092V72.3323H277.112V54.9872H281.238L285.811 62.3155L290.384 54.9872H294.51V72.3323L290.733 72.3447Z" fill="white"/>
<path d="M311.622 72.3447L310.033 68.4575H302.677L301.085 72.3447H297.184L304.645 54.8881H308.174L315.635 72.3447H311.622ZM306.355 59.469L304.042 65.0907H308.665L306.355 59.469Z" fill="white"/>
<path d="M321.577 71.2544C320.751 70.7377 320.023 70.0803 319.425 69.3124C318.823 68.5352 318.354 67.6646 318.035 66.7354C317.317 64.609 317.379 62.2977 318.21 60.2124C318.639 59.1475 319.272 58.1763 320.075 57.3535C320.887 56.5244 321.859 55.867 322.932 55.4208C324.097 54.9394 325.349 54.6991 326.61 54.7146C327.357 54.7096 328.102 54.7761 328.836 54.9128C329.461 55.0329 330.073 55.2156 330.661 55.458C331.196 55.6836 331.704 55.966 332.178 56.3004C332.638 56.6283 333.071 56.9929 333.471 57.3907L331.034 60.1783C330.412 59.6069 329.714 59.1233 328.96 58.7411C328.22 58.3861 327.407 58.2079 326.585 58.2208C325.888 58.2154 325.198 58.3591 324.561 58.6421C323.951 58.915 323.405 59.3116 322.957 59.8067C322.502 60.3136 322.149 60.9022 321.915 61.5411C321.664 62.2139 321.538 62.9265 321.542 63.6442C321.539 64.367 321.665 65.0845 321.915 65.7629C322.146 66.4029 322.495 66.9943 322.944 67.5066C323.4 68.0197 323.96 68.4292 324.589 68.7071C325.217 68.985 325.898 69.1248 326.585 69.1172C327.459 69.1435 328.325 68.9564 329.11 68.5721C329.855 68.168 330.544 67.6683 331.158 67.0854L333.593 69.5385C333.191 69.9715 332.76 70.3762 332.302 70.7495C331.852 71.11 331.364 71.4215 330.847 71.6787C330.305 71.9454 329.734 72.1531 329.147 72.2982C328.478 72.4612 327.795 72.5568 327.107 72.5832L325.494 76.6098L322.335 75.2965L324.325 72.3756C323.352 72.1593 322.422 71.7802 321.577 71.2544Z" fill="white"/>
<path d="M349.594 72.3447L348.006 68.4576H340.65L339.058 72.3447H335.156L342.618 54.8881H346.146L353.608 72.3447H349.594ZM348.391 52.723C348.165 53.0289 347.865 53.274 347.52 53.4362C347.175 53.5984 346.795 53.6726 346.414 53.6522C346.04 53.653 345.667 53.603 345.307 53.5036C344.967 53.4094 344.632 53.2977 344.303 53.169C343.992 53.0451 343.681 52.9337 343.42 52.8346C343.186 52.7432 342.938 52.6929 342.686 52.6859C342.529 52.6738 342.372 52.6951 342.224 52.7485C342.076 52.8019 341.941 52.8862 341.828 52.9956C341.597 53.2677 341.409 53.5725 341.269 53.9L339.257 53.2806C339.393 52.8056 339.555 52.3383 339.742 51.8806C339.895 51.493 340.105 51.1299 340.364 50.8027C340.593 50.5164 340.88 50.2812 341.206 50.112C341.558 49.9396 341.946 49.8546 342.338 49.8642C342.712 49.8632 343.084 49.9132 343.445 50.0129C343.799 50.112 344.135 50.2235 344.452 50.3474C344.763 50.4713 345.055 50.5797 345.319 50.6788C345.557 50.7722 345.81 50.8226 346.066 50.8275C346.223 50.8392 346.38 50.8177 346.528 50.7643C346.676 50.7109 346.811 50.6269 346.924 50.5178C347.154 50.2457 347.343 49.9408 347.483 49.6133L349.495 50.2328C349.282 51.1227 348.908 51.9666 348.391 52.723ZM344.328 59.4691L342.015 65.0907H346.638L344.328 59.4691Z" fill="white"/>
<path d="M373.304 67.1566C372.85 68.2329 372.187 69.2091 371.353 70.0292C370.519 70.8494 369.53 71.4974 368.444 71.9358C366.062 72.8775 363.409 72.8775 361.026 71.9358C359.94 71.4912 358.949 70.8436 358.107 70.0279C357.285 69.2259 356.634 68.2659 356.195 67.2062C355.734 66.1044 355.502 64.9213 355.511 63.7278V63.6783C355.501 62.4836 355.738 61.2996 356.207 60.2C356.661 59.1242 357.324 58.1483 358.157 57.3282C358.991 56.508 359.978 55.8598 361.064 55.4207C362.247 54.9396 363.516 54.6994 364.794 54.7145C366.064 54.7003 367.323 54.9405 368.497 55.4207C369.585 55.8646 370.577 56.5124 371.42 57.3288C372.241 58.1316 372.891 59.0913 373.332 60.1504C373.792 61.2521 374.025 62.4352 374.016 63.6287V63.6783C374.019 64.874 373.777 66.0577 373.304 67.1566ZM370.011 63.6783C370.016 62.9594 369.885 62.246 369.626 61.5752C369.38 60.9315 369.009 60.3428 368.533 59.843C368.058 59.3432 367.488 58.9424 366.856 58.6637C366.19 58.3712 365.469 58.2234 364.742 58.2301C364.012 58.2214 363.289 58.365 362.618 58.6513C361.996 58.922 361.437 59.3186 360.977 59.8159C360.517 60.3189 360.155 60.9029 359.91 61.538C359.65 62.2042 359.519 62.9138 359.525 63.6287V63.6783C359.52 64.3982 359.651 65.1125 359.91 65.7845C360.153 66.4296 360.522 67.0203 360.995 67.5221C361.469 68.0187 362.035 68.4185 362.662 68.6991C363.33 68.994 364.054 69.1418 364.785 69.1327C365.511 69.1385 366.231 68.9951 366.899 68.7115C367.526 68.4441 368.089 68.0472 368.55 67.5469C369.011 67.044 369.374 66.46 369.62 65.8248C369.88 65.1585 370.011 64.449 370.005 63.734L370.011 63.6783Z" fill="white"/>
<path d="M147.452 96.792C147.019 97.8348 146.372 98.7759 145.552 99.5548C144.702 100.348 143.705 100.969 142.618 101.385C141.427 101.841 140.162 102.068 138.887 102.054H132.84V84.7248H138.877C140.151 84.7109 141.416 84.9325 142.608 85.3783C143.696 85.7888 144.693 86.4075 145.543 87.1996C146.36 87.9745 147.007 88.91 147.443 89.9469C148.338 92.1414 148.338 94.5975 147.443 96.792H147.452ZM145.587 90.715C145.261 89.8947 144.77 89.1496 144.144 88.5252C143.495 87.8886 142.721 87.3911 141.871 87.0633C140.92 86.6974 139.907 86.5166 138.887 86.5306H134.802V100.249H138.877C139.896 100.262 140.908 100.086 141.862 99.7283C142.713 99.4081 143.487 98.9144 144.135 98.2788C144.756 97.6589 145.246 96.9218 145.577 96.1106C145.923 95.2522 146.096 94.3346 146.087 93.4098C146.093 92.4872 145.919 91.5723 145.577 90.715H145.587Z" fill="white"/>
<path d="M167.334 102.054H165.223L163.184 97.4734H153.717L151.653 102.054H149.641L157.569 84.6008H159.406L167.334 102.054ZM158.461 86.9022L154.485 95.742H162.413L158.461 86.9022Z" fill="white"/>
<path d="M180.364 84.7248V102.054H178.399V84.7248H180.364Z" fill="white"/>
<path d="M198.25 84.7248H200.162V102.054H198.607L187.375 87.8438V102.054H185.459V84.7248H187.3L198.259 98.6132L198.25 84.7248Z" fill="white"/>
<path d="M219.696 96.792C219.264 97.8354 218.617 98.7767 217.796 99.5548C216.945 100.348 215.949 100.969 214.861 101.385C213.671 101.841 212.405 102.068 211.13 102.054H205.093V84.7248H211.13C212.404 84.7109 213.669 84.9325 214.861 85.3783C215.949 85.7888 216.946 86.4075 217.796 87.1996C218.614 87.9737 219.261 88.9094 219.696 89.9469C220.591 92.1414 220.591 94.5975 219.696 96.792ZM217.83 90.715C217.504 89.8947 217.013 89.1496 216.388 88.5252C215.738 87.8886 214.965 87.3911 214.115 87.0633C213.163 86.6974 212.15 86.5166 211.13 86.5306H207.058V100.249H211.13C212.149 100.262 213.161 100.086 214.115 99.7283C214.966 99.4081 215.74 98.9144 216.388 98.2788C217.009 97.6589 217.499 96.9218 217.83 96.1106C218.176 95.2522 218.349 94.3346 218.34 93.4098C218.342 92.4866 218.166 91.5717 217.821 90.715H217.83Z" fill="white"/>
<path d="M238.732 94.6518C238.754 95.7876 238.577 96.9184 238.21 97.9938C237.899 98.8923 237.395 99.7125 236.733 100.397C236.088 101.043 235.306 101.537 234.445 101.844C232.529 102.487 230.454 102.487 228.538 101.844C227.679 101.54 226.899 101.05 226.253 100.41C225.591 99.7383 225.086 98.9306 224.773 98.0434C224.408 97.0016 224.231 95.9037 224.25 94.8005V84.7248H226.215V94.6765C226.215 96.5597 226.683 98.0052 227.617 99.0128C228.552 100.02 229.857 100.524 231.532 100.524C233.14 100.524 234.416 100.045 235.359 99.0872C236.302 98.129 236.774 96.7012 236.777 94.8036V84.7279H238.738L238.732 94.6518ZM230.58 83.3186L232.943 79.7288L234.93 80.658L232.132 83.331L230.58 83.3186Z" fill="white"/>
<path d="M245.096 90.1513C245.249 90.5119 245.497 90.8244 245.814 91.0557C246.253 91.3783 246.74 91.6302 247.257 91.8022C248.028 92.0639 248.816 92.2709 249.616 92.4216C251.556 92.8532 252.985 93.4479 253.904 94.2057C254.361 94.5896 254.724 95.0736 254.964 95.6199C255.203 96.1663 255.313 96.7603 255.284 97.3558C255.295 98.0407 255.152 98.7194 254.864 99.3417C254.577 99.9641 254.153 100.514 253.624 100.952C253.073 101.4 252.439 101.736 251.758 101.943C250.985 102.181 250.18 102.298 249.371 102.29C248.068 102.306 246.774 102.078 245.556 101.618C244.341 101.13 243.226 100.427 242.264 99.5424L243.482 98.1053C244.294 98.8702 245.225 99.498 246.24 99.9637C247.254 100.388 248.345 100.599 249.445 100.583C250.624 100.583 251.563 100.308 252.268 99.7624C252.607 99.5126 252.879 99.1849 253.063 98.8073C253.246 98.4298 253.335 98.0136 253.322 97.5943C253.33 97.2172 253.262 96.8425 253.123 96.4916C252.971 96.1426 252.731 95.8385 252.427 95.6088C252.006 95.2991 251.539 95.0567 251.043 94.8903C250.307 94.6347 249.554 94.4277 248.789 94.2708C247.904 94.0892 247.034 93.8406 246.187 93.5274C245.526 93.2897 244.907 92.9466 244.356 92.5115C243.893 92.139 243.525 91.6624 243.283 91.1208C243.037 90.5239 242.919 89.8826 242.935 89.2376C242.927 88.5767 243.072 87.9228 243.358 87.3265C243.642 86.7463 244.049 86.2347 244.552 85.8275C245.091 85.3909 245.705 85.0551 246.364 84.8362C247.101 84.5891 247.875 84.4676 248.653 84.477C249.789 84.4542 250.92 84.6314 251.995 85.0004C252.996 85.3786 253.931 85.9117 254.765 86.5801L253.621 88.0916C252.892 87.4791 252.065 86.9933 251.174 86.6544C250.35 86.3564 249.48 86.2055 248.603 86.2084C248.084 86.2016 247.568 86.2769 247.073 86.4314C246.652 86.5615 246.256 86.7638 245.904 87.0292C245.59 87.265 245.336 87.5705 245.161 87.9213C244.987 88.2673 244.898 88.6493 244.9 89.0363C244.893 89.417 244.959 89.7957 245.096 90.1513Z" fill="white"/>
<path d="M265.472 102.054H263.51V86.5306H257.668V84.7248H271.314V86.5306H265.472V102.054Z" fill="white"/>
<path d="M287.002 102.054L281.956 95.3208H276.981V102.054H275.02V84.7248H282.5C283.379 84.713 284.255 84.8384 285.096 85.0965C285.816 85.3176 286.487 85.674 287.073 86.1465C287.611 86.5914 288.043 87.1501 288.338 87.7819C288.643 88.4466 288.795 89.17 288.786 89.9005C288.798 90.5652 288.68 91.226 288.438 91.8456C288.215 92.4019 287.882 92.9076 287.459 93.3324C287.019 93.7641 286.511 94.1199 285.954 94.3854C285.354 94.6701 284.718 94.8702 284.064 94.9801L289.408 102.054H287.002ZM285.655 87.4381C284.876 86.8331 283.78 86.5306 282.366 86.5306H276.984V93.5863H282.338C282.945 93.5933 283.55 93.5098 284.132 93.3386C284.645 93.1916 285.127 92.9511 285.553 92.6292C285.945 92.3287 286.264 91.9431 286.485 91.5018C286.715 91.0289 286.83 90.5092 286.821 89.9841C286.845 89.4972 286.751 89.0117 286.547 88.5685C286.343 88.1254 286.035 87.7377 285.649 87.4381H285.655Z" fill="white"/>
<path d="M295.122 84.7248V102.054H293.157V84.7248H295.122Z" fill="white"/>
<path d="M316.419 102.054H314.305L312.268 97.4734H302.799L300.737 102.054H298.723L306.651 84.6008H308.491L316.419 102.054ZM307.546 86.9022L303.57 95.742H311.497L307.546 86.9022Z" fill="white"/>
</svg>
