<svg width="281" height="281" viewBox="0 0 281 281" fill="none" xmlns="http://www.w3.org/2000/svg">
<g opacity="0.25" clip-path="url(#clip0_963:1281)">
<path d="M0 130.975C2.34025 97.0989 16.8553 65.213 40.8662 41.2021C64.8771 17.1912 96.763 2.67619 130.639 0.335938V44.1315C108.379 46.3989 87.5837 56.277 71.7624 72.0983C55.941 87.9196 46.063 108.715 43.7956 130.975H0ZM280.664 150.377C278.321 184.247 263.806 216.127 239.799 240.135C215.792 264.142 183.911 278.657 150.041 281V237.22C172.299 234.95 193.093 225.071 208.914 209.25C224.735 193.429 234.614 172.635 236.884 150.377H280.664Z" fill="#58AADB"/>
<path d="M130.639 237.22V281C96.7654 278.66 64.8815 264.147 40.871 240.14C16.8604 216.132 2.34378 184.25 0 150.377H43.7956C46.0658 172.635 55.9447 193.429 71.7655 209.25C87.5863 225.071 108.38 234.949 130.639 237.22ZM281 0V130.975H237.357V74.4937L155.765 156.086L124.853 125.25L206.445 43.6429H149.964V0H281Z" fill="#58AADB"/>
</g>
<defs>
<clipPath id="clip0_963:1281">
<rect width="281" height="281" fill="white"/>
</clipPath>
</defs>
</svg>
