<svg width="40" height="40" viewBox="0 0 40 40" fill="none" xmlns="http://www.w3.org/2000/svg">
<path d="M35.4282 18.27C36.2182 19.3033 36.2182 20.6983 35.4282 21.73C32.9399 24.9783 26.9699 31.6667 19.9999 31.6667C13.0299 31.6667 7.05986 24.9783 4.57152 21.73C4.18716 21.2352 3.97852 20.6265 3.97852 20C3.97852 19.3735 4.18716 18.7648 4.57152 18.27C7.05986 15.0217 13.0299 8.33334 19.9999 8.33334C26.9699 8.33334 32.9399 15.0217 35.4282 18.27V18.27Z" stroke="#58AADB" stroke-width="2" stroke-linecap="round" stroke-linejoin="round"/>
<path d="M20 25C22.7614 25 25 22.7614 25 20C25 17.2386 22.7614 15 20 15C17.2386 15 15 17.2386 15 20C15 22.7614 17.2386 25 20 25Z" stroke="#58AADB" stroke-width="2" stroke-linecap="round" stroke-linejoin="round"/>
</svg>
