<svg width="22" height="27" viewBox="0 0 22 27" fill="none" xmlns="http://www.w3.org/2000/svg">
<path d="M17.875 8.1V6.75C17.875 3.02805 14.7909 0 11 0C7.20913 0 4.125 3.02805 4.125 6.75V10.8H2.75C1.23337 10.8 0 12.011 0 13.5V24.3C0 25.7891 1.23337 27 2.75 27H19.25C20.7666 27 22 25.7891 22 24.3V13.5C22 12.011 20.7666 10.8 19.25 10.8H6.875V6.75C6.875 4.5171 8.72575 2.7 11 2.7C13.2743 2.7 15.125 4.5171 15.125 6.75V8.1H17.875ZM19.25 13.5L19.2528 24.3H2.75V13.5H19.25Z" fill="#053F5C" fill-opacity="0.5"/>
</svg>
