<svg width="24" height="24" viewBox="0 0 24 24" fill="none" xmlns="http://www.w3.org/2000/svg">
<path d="M15.6667 8.33333H9.06667C8.87217 8.33333 8.68565 8.41059 8.54812 8.54812C8.41059 8.68565 8.33333 8.87217 8.33333 9.06667V16.8889M8.33333 23H15.6667H8.33333ZM8.33333 23V16.8889V23ZM8.33333 23H1.73333C1.53884 23 1.35232 22.9227 1.21479 22.7852C1.07726 22.6477 1 22.4612 1 22.2667V17.6222C1 17.4277 1.07726 17.2412 1.21479 17.1037C1.35232 16.9661 1.53884 16.8889 1.73333 16.8889H8.33333V23ZM15.6667 23V8.33333V23ZM15.6667 23H22.2667C22.4612 23 22.6477 22.9227 22.7852 22.7852C22.9227 22.6477 23 22.4612 23 22.2667V1.73333C23 1.53884 22.9227 1.35232 22.7852 1.21479C22.6477 1.07726 22.4612 1 22.2667 1H16.4C16.2055 1 16.019 1.07726 15.8815 1.21479C15.7439 1.35232 15.6667 1.53884 15.6667 1.73333V8.33333V23Z" stroke="white" stroke-width="1.5"/>
</svg>
