<svg width="21" height="13" viewBox="0 0 21 13" fill="none" xmlns="http://www.w3.org/2000/svg">
<path d="M8.75 11.5L0.359985 3.06C0.245692 2.94577 0.154999 2.81014 0.0931396 2.66087C0.0312806 2.51159 -0.000610352 2.35158 -0.000610352 2.19C-0.000610352 2.02841 0.0312806 1.8684 0.0931396 1.71913C0.154999 1.56985 0.245692 1.43422 0.359985 1.32C0.592382 1.08856 0.907004 0.958618 1.23499 0.958618C1.56297 0.958618 1.87759 1.08856 2.10999 1.32L10.11 9.32L18.11 1.32C18.3424 1.08856 18.657 0.958618 18.985 0.958618C19.313 0.958618 19.6276 1.08856 19.86 1.32C19.9743 1.43422 20.0648 1.56985 20.1267 1.71913C20.1886 1.8684 20.2205 2.02841 20.2205 2.19C20.2205 2.35158 20.1886 2.51159 20.1267 2.66087C20.0648 2.81014 19.9743 2.94577 19.86 3.06L11.49 11.5C11.3106 11.6808 11.0971 11.8243 10.8619 11.9222C10.6268 12.0202 10.3747 12.0706 10.12 12.0706C9.86528 12.0706 9.61306 12.0202 9.37793 11.9222C9.1428 11.8243 8.92941 11.6808 8.75 11.5Z" fill="white"/>
</svg>
