<svg width="15" height="17" viewBox="0 0 15 17" fill="none" xmlns="http://www.w3.org/2000/svg">
<path d="M4.80957 6.01172H6.01195V13.226H4.80957V6.01172Z" fill="#053F5C"/>
<path d="M8.4165 6.01172H9.61888V13.226H8.4165V6.01172Z" fill="#053F5C"/>
<path d="M0 2.40479V3.60716H1.20238V15.6309C1.20238 15.9498 1.32905 16.2556 1.55454 16.4811C1.78003 16.7066 2.08586 16.8333 2.40475 16.8333H12.0238C12.3426 16.8333 12.6485 16.7066 12.874 16.4811C13.0994 16.2556 13.2261 15.9498 13.2261 15.6309V3.60716H14.4285V2.40479H0ZM2.40475 15.6309V3.60716H12.0238V15.6309H2.40475Z" fill="#053F5C"/>
<path d="M4.80957 0H9.61907V1.20238H4.80957V0Z" fill="#053F5C"/>
</svg>
