<svg width="526" height="526" viewBox="0 0 526 526" fill="none" xmlns="http://www.w3.org/2000/svg">
<g opacity="0.25" clip-path="url(#clip0)">
<path d="M0 245.169C4.38068 181.758 31.5512 122.071 76.4969 77.1255C121.443 32.1799 181.129 5.00935 244.541 0.62867V82.609C202.874 86.8534 163.947 105.344 134.331 134.96C104.715 164.575 86.2246 203.502 81.9803 245.169H0ZM525.371 281.488C520.985 344.89 493.815 404.566 448.876 449.505C403.937 494.444 344.261 521.614 280.859 526V444.048C322.524 439.799 361.448 421.306 391.063 391.692C420.678 362.077 439.17 323.153 443.42 281.488H525.371Z" fill="white"/>
<path d="M244.541 444.048V526C181.134 521.62 121.451 494.454 76.5058 449.514C31.5608 404.574 4.3873 344.894 0 281.488H81.9803C86.2298 323.153 104.722 362.077 134.337 391.692C163.952 421.306 202.876 439.799 244.541 444.048ZM526 7.62939e-06V245.169H444.305V139.444L291.575 292.175L233.711 234.454L386.442 81.6946H280.716V7.62939e-06H526Z" fill="white"/>
</g>
<defs>
<clipPath id="clip0">
<rect width="526" height="526" fill="white"/>
</clipPath>
</defs>
</svg>
