<svg width="646" height="742" viewBox="0 0 646 742" fill="none" xmlns="http://www.w3.org/2000/svg">
<path d="M624.282 174.339L372.977 8.85913C355.041 -2.95304 330.984 -2.95304 313.048 8.85913L22.6136 200.107C8.98926 209.077 0.895508 223.592 0.895508 239.067V495.527C0.896977 505.375 3.34197 515.069 8.01113 523.739C12.6803 532.409 19.4276 539.784 27.6476 545.201L86.1455 583.717V255.072L343.044 85.9473L510.946 196.514C523.416 204.722 523.416 221.86 510.946 230.067L357.5 331.109C352.798 334.155 347.315 335.776 341.714 335.776C336.112 335.776 330.63 334.155 325.927 331.109L203.817 250.706L131.262 298.48L326.718 427.201C331.465 430.278 336.999 431.915 342.655 431.915C348.31 431.915 353.845 430.278 358.591 427.201L624.282 252.265C653.24 233.204 653.24 193.406 624.282 174.339Z" fill="white" fill-opacity="0.25"/>
<path d="M560.75 512.688L343.015 656.063L216.488 572.76V407.51L131.238 351.378V613.423L216.488 669.556L313.053 733.145C330.984 744.952 355.04 744.952 372.971 733.145L619.242 570.98C627.462 565.563 634.209 558.188 638.878 549.518C643.548 540.848 645.993 531.154 645.994 521.306V290.884L560.744 347.017L560.75 512.688Z" fill="white" fill-opacity="0.25"/>
</svg>
